<svg height="511pt" viewBox="0 -26 511.99996 511" width="511pt" xmlns="http://www.w3.org/2000/svg"><path d="m40.003906 363.449219v76.050781c0 11.046875-8.953125 20-20 20s-19.99999975-8.953125-19.99999975-20v-76.050781c0-11.046875 8.95312475-20 19.99999975-20s20 8.953125 20 20zm137.332032-73.367188c-11.046876 0-20 8.953125-20 20v129.417969c0 11.046875 8.953124 20 20 20 11.046874 0 20-8.953125 20-20v-129.417969c0-11.046875-8.953126-20-20-20zm157.332031-53.371093c-11.046875 0-20 8.957031-20 20v182.789062c0 11.046875 8.953125 20 20 20s20-8.953125 20-20v-182.789062c0-11.042969-8.953125-20-20-20zm157.332031-53.367188c-11.046875 0-20 8.953125-20 20v236.15625c0 11.046875 8.953125 20 20 20s20-8.953125 20-20v-236.15625c0-11.046875-8.953125-20-20-20zm-14.664062-52.851562 32.203124-67.566407c5.457032-10.011719 1.511719-22.75-8.925781-27.730469l-68.59375-32.738281c-9.96875-4.761719-21.90625-.535156-26.664062 9.433594-4.757813 9.964844-.535157 21.90625 9.433593 26.664063l24.105469 11.503906-425.242187 142.441406c-10.472656 3.507812-16.121094 14.84375-12.613282 25.316406 3.527344 10.523438 14.894532 16.105469 25.320313 12.613282l427.246094-143.113282-12.378907 25.964844c-4.75 9.972656-.519531 21.90625 9.449219 26.660156 10.003907 4.765625 21.921875.488282 26.660157-9.449218zm0 0"/></svg>