<svg height="638pt" viewBox="0 -87 638.75 638" width="638pt" xmlns="http://www.w3.org/2000/svg" fill="#FF0F80"><path d="m473.359375 264.007812-13.023437 4.34375-102.066407-132.699218 26.238281-19.699219zm-298.078125-263.632812 64.113281 34.414062c8.882813 4.695313 13.328125 14.921876 10.695313 24.625l-9.417969 31.753907-65.472656-39.257813-22.675781-13.609375zm-67.539062 108.859375 5.839843-9.121094 37.527344 27.90625c19.097656 14.339844 28.855469 37.960938 25.433594 61.59375l-1.421875 32.96875-101.9375-58.757812zm485.382812 332.195313h-167.191406l-399.21875-221.28125 23.050781-43.339844 377.964844 217.484375c1.738281.992187 3.707031 1.515625 5.707031 1.515625h205.3125c0 25.199218-20.429688 45.621094-45.625 45.621094zm45.625-68.433594h-202.265625l-78.234375-45.042969 26.300781-26.820313c4.347657-4.558593 4.171875-11.777343-.390625-16.125-4.46875-4.257812-11.515625-4.183593-15.894531.15625l-30.433594 31.027344-43.34375-24.980468 43.46875-34.773438c4.921875-3.9375 5.714844-11.121094 1.777344-16.039062-3.9375-4.921876-11.113281-5.714844-16.035156-1.777344l-50.449219 40.363281-37.140625-21.355469 56.34375-46.957031c4.847656-4.03125 5.503906-11.226563 1.472656-16.074219-4.027343-4.84375-11.226562-5.5-16.070312-1.46875l-62.828125 52.367188-17.628906-10.152344 1.84375-43.789062c4.226562-31.546876-8.996094-62.894532-34.527344-81.894532l-38.859375-28.894531 14.679687-23.050781 100.96875 60.578125c1.355469.78125 2.863282 1.261719 4.417969 1.421875.269531 0 .511719.09375.78125.117187.273437.019531.449219.078125.664063.078125 1.414062.007813 2.8125-.253906 4.128906-.765625l115.542968-44.558593c2.117188-.804688 4.484376-.53125 6.355469.738281 1.882813 1.289062 2.996094 3.425781 2.976563 5.703125v12.550781l-41.058594 30.792969c-5.039062 3.785156-6.054688 10.933594-2.269531 15.972656.027343.03125.050781.066406.074219.097656l114.0625 148.285156c2.949218 3.859376 8.03125 5.414063 12.636718 3.863282l32.066406-10.6875 102.496094 7.320312c24.945313 1.847656 44.273438 22.578125 44.371094 47.589844zm0 0"/><path d="m68.433594 304.554688h-57.023438c-6.304687 0-11.410156 5.109374-11.410156 11.410156 0 6.300781 5.105469 11.402344 11.410156 11.402344h57.023438c6.304687 0 11.410156-5.101563 11.410156-11.402344 0-6.300782-5.105469-11.410156-11.410156-11.410156zm0 0"/><path d="m0 384.398438c0 6.300781 5.105469 11.410156 11.410156 11.410156h148.277344c6.300781 0 11.410156-5.109375 11.410156-11.410156 0-6.296876-5.109375-11.402344-11.410156-11.402344h-148.277344c-6.304687 0-11.410156 5.105468-11.410156 11.402344zm0 0"/><path d="m285.15625 441.429688h-273.746094c-6.304687 0-11.410156 5.109374-11.410156 11.410156 0 6.296875 5.105469 11.402344 11.410156 11.402344h273.746094c6.300781 0 11.40625-5.105469 11.40625-11.402344 0-6.300782-5.105469-11.410156-11.40625-11.410156zm0 0"/></svg>